<svg width="161" height="161" viewBox="0 0 161 161" fill="none" xmlns="http://www.w3.org/2000/svg">
<rect width="161" height="161" fill="#F5F5F5"/>
<rect width="161" height="161" rx="80.5" fill="#3388FF"/>
<rect x="8.04993" y="8.05029" width="144.9" height="144.9" rx="72.45" fill="#011432"/>
<rect x="55.2357" y="51.6882" width="8.09994" height="32.014" rx="4.04997" fill="#3188F8"/>
<rect x="98.0776" y="52.2583" width="8.09994" height="31.6283" rx="4.04997" fill="#3188F8"/>
<rect x="55.2357" y="37.0298" width="50.9139" height="39.7283" rx="19.8641" fill="#3188F8"/>
<path d="M98.0499 57.769C98.0499 55.7545 97.6009 53.7597 96.7286 51.8985C95.8564 50.0374 94.5779 48.3463 92.9661 46.9218C91.3544 45.4973 89.4409 44.3673 87.3351 43.5964C85.2292 42.8255 82.9722 42.4287 80.6929 42.4287C78.4135 42.4287 76.1565 42.8255 74.0506 43.5964C71.9448 44.3673 70.0313 45.4973 68.4196 46.9218C66.8078 48.3463 65.5293 50.0374 64.6571 51.8985C63.7848 53.7597 63.3358 55.7545 63.3358 57.769L80.6929 57.769H98.0499Z" fill="#011432"/>
<rect x="63.3358" y="57.24" width="34.714" height="22.217" fill="#011432"/>
<rect x="44.4362" y="74.7051" width="72.128" height="49.371" rx="24.6855" fill="#3388FF"/>
<rect x="77.5673" y="87.9065" width="5.86583" height="23.184" rx="2.93292" fill="#001331"/>
<rect x="68.9083" y="102.43" width="5.86583" height="23.184" rx="2.93292" transform="rotate(-90 68.9083 102.43)" fill="#001331"/>
<circle cx="80.6395" cy="99.3583" r="1.39663" fill="#3388FF"/>
</svg>
